PathFileType	4	(X/Y/Z)	C:\Users\°ÂÌØÂü\Desktop\20210112\bx_n_5_901-Unnamed.trc
DataRate	CameraRate	NumFrames	NumMarkers	Units	OrigDataRate	OrigDataStartFrame	OrigNumFrames
50.00	50.00	       4	0	mm	50.00	353	       470
Frame#	Time	
		

353	7.040	-106.39764	121.04881	1094.19531	-786.28229	230.57414	976.73962	-814.77203	144.70818	565.21460	-820.63379	68.41656	560.40942	-777.39386	-5.57452	798.51447	-933.27161	86.45309	1099.74426	-863.98865	281.51404	724.54242	-862.73730	-77.62257	856.17804	-863.87903	255.00327	620.69916	-784.51898	206.85629	534.43011	-864.22430	263.57483	478.76334	-518.57306	-72.90778	143.69228	-549.66144	-20.46678	163.13126	-796.26697	33.08593	172.06560	-600.96460	30.74577	165.77783	-730.70319	64.24628	219.80850	-723.64752	158.60233	222.76390	-799.86212	184.13007	179.30608	-773.91193	231.69218	201.34134	-594.33405	216.53484	173.66930	-882.89264	295.70929	144.44582	-557.60632	251.94302	163.92953	-659.30884	296.13791	157.79437	-623.05670	305.04742	158.36826	-528.46234	303.56247	146.13954	-354.90039	260.93478	975.72699	-779.37848	218.12340	786.70343	-849.52966	-55.14887	467.53183	-764.04651	-25.73580	201.99701	-675.83807	51.99757	162.90530	-875.96667	-78.41602	140.99751				-855.57587	-72.10369	740.94360	-836.87805	-41.91674	603.98248	-833.15668	-39.91401	555.37634	-677.38800	174.35603	163.34937	-646.70630	-65.87897	162.35449				-605.23816	-71.68401	156.80408	-891.52655	285.97693	860.54358				-846.67487	250.54193	558.71265	-773.73578	12.23116	522.97870	
354	7.060	-107.35789	120.87467	1102.55139	-786.09534	230.08047	977.14355	-815.23895	144.46367	564.86853	-821.14313	68.00861	560.22107	-777.74493	-5.60339	798.07062	-933.39911	86.46854	1099.11121	-864.27979	281.38782	724.62634	-862.86603	-77.90391	855.96118	-864.51276	255.00279	620.82184	-784.89813	206.94995	534.36017	-864.63202	263.36996	478.67517	-518.32062	-72.74522	143.59990	-549.80768	-20.47535	163.13602	-796.22040	32.99009	172.12814	-601.12695	30.55433	165.74065	-730.70319	64.24628	219.80850	-723.64752	158.60233	222.76390	-799.88330	183.94804	179.70685	-774.22137	231.54716	201.08501	-594.52484	216.68140	173.43085	-882.48688	296.20758	144.78180	-557.55029	251.75223	163.93370	-659.27905	296.49356	157.53734	-622.84802	305.10742	158.50101	-528.34991	303.81393	146.23856	-354.18243	262.19708	980.23608	-779.51685	218.21242	786.76202	-849.69513	-55.21835	467.15280	-763.68170	-25.48410	201.81467	-676.00256	52.15827	162.78172	-875.96667	-78.41602	140.99751				-855.73071	-72.22337	740.91321	-837.29260	-41.98055	603.75336	-833.40930	-39.93954	555.25342	-677.56683	174.29854	163.59889	-646.83881	-66.08889	162.39627				-605.20367	-71.69692	156.88940	-891.79358	285.58691	860.56317				-847.31708	250.42889	558.22864	-774.07648	12.15990	522.90497	
355	7.080	-108.61245	121.14572	1112.03857	-786.58258	229.48508	977.91119	-815.91724	144.28738	564.62830	-821.32910	67.88718	560.05377	-777.80725	-6.06360	798.18268	-934.03741	86.12193	1098.59302	-864.81128	280.83496	724.77466	-862.85040	-77.95300	855.92316	-864.89063	254.89783	620.96582	-785.35974	206.97556	534.00275	-865.34808	263.82959	478.92343	-518.45508	-72.39133	143.20766	-549.93073	-20.51381	163.23552	-795.79993	32.98301	171.66222	-601.18268	30.42441	165.92494	-730.70319	64.24628	219.80850	-723.64752	158.60233	222.76390	-800.05316	183.97942	179.39966	-774.19678	231.65425	201.06248	-594.67664	216.73767	173.59453	-882.50098	296.14975	144.83727	-557.55237	251.94466	164.06929	-659.48114	296.66730	157.55400	-623.10791	305.10461	158.39674	-528.26050	303.74411	146.31769				-780.08258	217.66580	786.20868	-850.12372	-55.63339	467.16452	-763.72601	-25.93333	201.78117	-675.69611	52.07710	163.05811	-875.97729	-78.46404	140.94899				-856.18787	-72.49543	740.77515	-837.62805	-42.56244	603.54706	-833.60010	-40.23510	554.83429	-677.47400	174.18735	163.67302	-646.93286	-66.18394	162.26740				-605.20367	-71.69692	156.88940	-891.94397	285.20355	860.60730				-848.14691	250.14938	558.10565	-774.16083	12.17231	522.82269	
356	7.100	-109.53998	121.35223	1121.89722	-786.24689	229.59431	978.98212	-816.18866	144.51212	564.38104	-821.67749	66.96343	559.54785	-778.60553	-4.71677	796.55334	-935.25482	86.02602	1098.58484	-865.21014	280.68182	724.67004	-862.62585	-77.83533	855.76825	-865.26019	254.50713	620.96356	-785.50970	206.96220	534.02686	-865.81641	263.35876	478.45163	-518.61053	-72.38587	143.25256	-549.89728	-20.38726	163.11253	-796.36096	32.99545	171.95717	-601.26886	30.46125	165.89148	-730.79291	64.17420	219.98587	-723.64752	158.60233	222.76390	-800.27460	183.73773	180.05484	-774.47833	231.12639	200.81606	-594.33392	216.77283	173.89850	-882.45648	296.13852	144.71089	-557.77460	251.97209	164.18919	-659.45184	296.67456	157.77945	-623.02039	305.14453	158.16437	-528.20831	303.92740	146.28271				-780.20917	217.32442	785.73926	-850.22424	-55.73060	467.17639	-763.90039	-25.96514	201.58768	-675.69611	52.07710	163.05811	-875.97729	-78.46404	140.94899				-856.19635	-72.66128	740.52380	-837.89929	-42.64550	603.15607	-833.77539	-40.43501	554.61737	-677.56683	174.29854	163.59889	-646.99005	-66.10527	162.28064				-605.37781	-71.69038	156.96878	-891.91083	284.67572	860.64514				-848.40155	249.97466	557.75409	-774.34778	11.82844	522.59668	
